<svg width="48" height="48" viewBox="0 0 48 48" fill="none" xmlns="http://www.w3.org/2000/svg">
<path d="M23.933 2L3 9.285L6.308 36.408L23.955 46L41.693 36.278L45 9.156L23.933 2Z" fill="#BDBDBD"/>
<path d="M42.818 10.5268L24 4.13477V43.6948L39.832 35.0168L42.818 10.5268Z" fill="#B71C1C"/>
<path d="M23.9407 4.11523L5.18066 10.6442L8.16766 35.1432L23.9507 43.7212L23.9997 43.6952V4.13523L23.9407 4.11523Z" fill="#DD2C00"/>
<path d="M24 5.99609V15.5041L32.578 34.0001H36.987L24 5.99609Z" fill="#BDBDBD"/>
<path d="M11.0127 34.0001H15.4217L23.9997 15.5041V5.99609L11.0127 34.0001Z" fill="#EEEEEE"/>
<path d="M24 24H30V28H24V24Z" fill="#BDBDBD"/>
<path d="M18 24H24V28H18V24Z" fill="#EEEEEE"/>
</svg>
