<svg width="50" height="50" viewBox="0 0 50 50" fill="none" xmlns="http://www.w3.org/2000/svg">
<path fill-rule="evenodd" clip-rule="evenodd" d="M0 25.2386C0 11.314 11.1786 0 25 0C38.8214 0 50 11.314 50 25.2386C50 36.8385 42.2431 46.6142 31.6666 49.5626L30.4424 49.9038L30.4455 48.6396C30.4535 45.3785 30.4621 41.0835 30.4621 39.2188C30.4621 37.0778 29.739 35.8335 29.0974 35.2725L27.467 33.8469L29.6244 33.6044C32.3446 33.2986 34.9549 32.6376 36.885 31.0058C38.7703 29.4118 40.1571 26.7591 40.1571 22.1259C40.1571 19.6194 39.2825 17.5988 37.8381 16.0051L37.4349 15.5603L37.6614 15.0054C37.8488 14.5463 38.5612 12.4846 37.6114 9.6C37.4263 9.60884 37.1798 9.63626 36.8688 9.70253C35.9022 9.90851 34.3049 10.4918 32.0026 12.0682L31.6309 12.3227L31.1966 12.201C29.2945 11.6682 27.2481 11.3987 25.2105 11.3891C23.1728 11.3987 21.1282 11.6682 19.2302 12.2009L18.7959 12.3228L18.4241 12.0685C16.1191 10.4921 14.5197 9.90863 13.5514 9.70258C13.2396 9.63621 12.9924 9.60879 12.8069 9.59997C11.8598 12.4845 12.5721 14.5461 12.7595 15.0054L12.9857 15.5595L12.5836 16.0042C11.141 17.5997 10.2607 19.6211 10.2607 22.1259C10.2607 26.7471 11.6447 29.4031 13.5276 31.0038C15.4544 32.6417 18.0594 33.3125 20.7707 33.6243L22.9088 33.8702L21.298 35.2897C20.7871 35.7399 20.2283 36.6269 20.0296 38.0719L19.9577 38.5945L19.4748 38.8128C18.698 39.1639 17.2605 39.677 15.6621 39.5328C13.995 39.3823 12.2563 38.5229 10.9867 36.3246L10.9808 36.3145M12.11 8.69864C11.8128 7.78933 11.8138 7.78903 11.8147 7.78872L11.8167 7.7881L11.8207 7.78683L11.8294 7.78415L11.8491 7.77829C11.8634 7.7742 11.8798 7.76973 11.8984 7.76504C11.9355 7.75567 11.9813 7.74543 12.0359 7.73548C12.145 7.71557 12.2885 7.69698 12.467 7.68872C12.8247 7.67218 13.3181 7.69735 13.9539 7.83267C15.1592 8.08918 16.8689 8.73957 19.1428 10.2433C21.0951 9.73808 23.1596 9.48606 25.2061 9.47683L25.2148 9.47679V9.47683C27.2616 9.48606 29.3275 9.73814 31.283 10.2433C33.5542 8.73975 35.2618 8.08929 36.4658 7.83272C37.101 7.69737 37.5939 7.67217 37.9514 7.68873C38.1298 7.69699 38.2731 7.7156 38.3823 7.73553C38.4368 7.74548 38.4826 7.75574 38.5197 7.76513C38.5383 7.76982 38.5547 7.77429 38.569 7.7784L38.5888 7.78427L38.5974 7.78695L38.6015 7.78823L38.6034 7.78885C38.6044 7.78916 38.6053 7.78946 38.3077 8.69864L38.6053 7.78946L39.0386 7.92971L39.2038 8.352C40.4285 11.4825 40.003 13.9628 39.6414 15.1596C41.1698 17.0252 42.0801 19.3522 42.0801 22.1259C42.0801 27.1676 40.5502 30.4171 38.1306 32.4626C36.2114 34.0852 33.8297 34.864 31.4913 35.2711C32.0371 36.2786 32.3851 37.6011 32.3851 39.2188C32.3851 40.8461 32.3787 44.3187 32.3717 47.3425C41.4938 44.2357 48.0769 35.5214 48.0769 25.2386C48.0769 12.3416 37.7309 1.91226 25 1.91226C12.2691 1.91226 1.92308 12.3416 1.92308 25.2386C1.92308 35.6821 8.71048 44.5119 18.0534 47.4891C18.0489 45.6964 18.0438 43.8326 18.0397 42.5864C14.992 43.0158 12.9421 42.2945 11.6126 41.288C10.884 40.7364 10.4088 40.1264 10.1139 39.6488C9.96623 39.4098 9.86256 39.202 9.79381 39.0481C9.75938 38.971 9.73354 38.907 9.7152 38.8589C9.70602 38.8348 9.69871 38.8147 9.69312 38.7988L9.69285 38.798C9.17446 37.4739 8.55728 36.6677 8.10035 36.2049C7.8697 35.9713 7.6765 35.8217 7.55201 35.7357C7.48968 35.6926 7.4444 35.6654 7.42006 35.6515C7.41209 35.6469 7.40636 35.6438 7.40303 35.642L7.34315 35.6136L7.27883 35.5691C6.70341 35.1716 6.21659 34.7456 6.01077 34.2502C5.88883 33.9567 5.84859 33.5946 6.00313 33.2359C6.14588 32.9046 6.39804 32.7107 6.58218 32.6046C6.92808 32.4054 7.33208 32.3456 7.54615 32.3218C7.67238 32.3077 7.7837 32.3015 7.86378 32.2987C7.90427 32.2973 7.9379 32.2967 7.96279 32.2965L7.99364 32.2964L8.0039 32.2964L8.00768 32.2965L8.00922 32.2965L8.0099 32.2965C8.01022 32.2965 8.01053 32.2965 7.99786 33.2525L8.01053 32.2965L8.0384 32.2968L8.06621 32.2988C9.62694 32.4094 10.7853 33.2165 11.5214 33.9344C11.893 34.2969 12.1729 34.6514 12.3611 34.9167C12.4556 35.05 12.5283 35.1626 12.5789 35.2447C12.6042 35.2858 12.6241 35.3195 12.6386 35.3445L12.6562 35.3754L12.658 35.3786C13.6116 37.0258 14.7879 37.5338 15.8359 37.6283C16.719 37.708 17.5775 37.497 18.2178 37.2608C18.3703 36.509 18.6101 35.8498 18.9119 35.2879C16.5753 34.8745 14.1953 34.0872 12.278 32.4572C9.86494 30.4059 8.33761 27.1562 8.33761 22.1259C8.33761 19.3507 9.25486 17.0243 10.7797 15.1602C10.418 13.9637 9.99175 11.4835 11.2136 8.35271L11.3788 7.92961L11.8128 7.78933L12.11 8.69864ZM9.12792 34.5401C9.23685 34.6355 9.35241 34.7434 9.4727 34.8653C10.1146 35.5155 10.8785 36.5474 11.4928 38.1245L11.5026 38.1496L11.5085 38.1679L11.5085 38.1679L11.5134 38.181C11.5199 38.198 11.5322 38.2291 11.5514 38.272C11.5898 38.3579 11.6546 38.4895 11.7526 38.6481C11.9489 38.9659 12.2731 39.3846 12.7776 39.7665C13.7514 40.5038 15.5519 41.2194 18.7894 40.5082L19.9524 40.2526L19.9583 41.437C19.9637 42.511 19.9728 45.9547 19.9797 48.7602L19.9828 50L18.7761 49.6878C7.97174 46.8929 0 37.0001 0 25.2386M9.12792 34.5401C9.53309 34.7426 9.88273 35.0148 10.1748 35.2996C10.4458 35.564 10.6522 35.8251 10.7895 36.0188C10.8578 36.115 10.9077 36.1928 10.939 36.2436C10.9546 36.269 10.9655 36.2874 10.9716 36.2979L10.9756 36.3048L10.9759 36.3054L10.9764 36.3063L10.9769 36.3072L10.9771 36.3075M10.5962 38.4698C11.511 38.1753 11.5107 38.1747 11.5105 38.1741L11.511 38.1753L10.5962 38.4698L10.5962 38.4698Z" fill="#151515"/>
</svg>
