<svg width="50" height="50" viewBox="0 0 50 50" fill="none" xmlns="http://www.w3.org/2000/svg">
<path d="M44 1H6C3.243 1 1 3.243 1 6V44C1 46.757 3.243 49 6 49H44C46.757 49 49 46.757 49 44V6C49 3.243 46.757 1 44 1ZM47 44C47 45.654 45.654 47 44 47H6C4.346 47 3 45.654 3 44V6C3 4.346 4.346 3 6 3H44C45.654 3 47 4.346 47 6V44Z" fill="#151515"/>
<path d="M8 42H16V19H8V42ZM10 21H14V40H10V21Z" fill="#151515"/>
<path d="M12 7C9.243 7 7 9.243 7 12C7 14.757 9.243 17 12 17C14.757 17 17 14.757 17 12C17 9.243 14.757 7 12 7ZM12 15C10.346 15 9 13.654 9 12C9 10.346 10.346 9 12 9C13.654 9 15 10.346 15 12C15 13.654 13.654 15 12 15Z" fill="#151515"/>
<path d="M31 19C29.637 19 28.297 19.308 27 19.916V19H19V42H27V31C27 28.794 28.794 27 31 27C33.206 27 35 28.794 35 31V42H43V31C43 24.383 37.617 19 31 19ZM41 40H37V31C37 27.691 34.309 25 31 25C27.691 25 25 27.691 25 31V40H21V21H25V23.521L26.561 22.464C27.996 21.493 29.489 21 31 21C36.514 21 41 25.486 41 31V40Z" fill="#151515"/>
</svg>
