<svg width="160" height="358" viewBox="0 0 160 358" fill="none" xmlns="http://www.w3.org/2000/svg">
<path fill-rule="evenodd" clip-rule="evenodd" d="M155.447 167.377C152.933 167.377 150.894 165.351 150.894 162.853C150.894 160.355 152.933 158.329 155.447 158.329C157.962 158.329 160 160.355 160 162.853C160 165.351 157.962 167.377 155.447 167.377ZM155.447 135.711C152.933 135.711 150.894 133.685 150.894 131.187C150.894 128.689 152.933 126.663 155.447 126.663C157.962 126.663 160 128.689 160 131.187C160 133.685 157.962 135.711 155.447 135.711ZM155.447 104.045C152.933 104.045 150.894 102.02 150.894 99.5212C150.894 97.0228 152.933 94.9975 155.447 94.9975C157.962 94.9975 160 97.0228 160 99.5212C160 102.02 157.962 104.045 155.447 104.045ZM155.447 72.3791C152.933 72.3791 150.894 70.3538 150.894 67.8554C150.894 65.357 152.933 63.3317 155.447 63.3317C157.962 63.3317 160 65.357 160 67.8554C160 70.3538 157.962 72.3791 155.447 72.3791ZM155.447 40.7133C152.933 40.7133 150.894 38.6879 150.894 36.1896C150.894 33.6912 152.933 31.6658 155.447 31.6658C157.962 31.6658 160 33.6912 160 36.1896C160 38.6879 157.962 40.7133 155.447 40.7133ZM155.447 9.04738C152.933 9.04738 150.894 7.02206 150.894 4.52369C150.894 2.02532 152.933 0 155.447 0C157.962 0 160 2.02532 160 4.52369C160 7.02206 157.962 9.04738 155.447 9.04738ZM125.528 167.377C123.014 167.377 120.976 165.351 120.976 162.853C120.976 160.355 123.014 158.329 125.528 158.329C128.043 158.329 130.081 160.355 130.081 162.853C130.081 165.351 128.043 167.377 125.528 167.377ZM125.528 135.711C123.014 135.711 120.976 133.685 120.976 131.187C120.976 128.689 123.014 126.663 125.528 126.663C128.043 126.663 130.081 128.689 130.081 131.187C130.081 133.685 128.043 135.711 125.528 135.711ZM125.528 104.045C123.014 104.045 120.976 102.02 120.976 99.5212C120.976 97.0228 123.014 94.9975 125.528 94.9975C128.043 94.9975 130.081 97.0228 130.081 99.5212C130.081 102.02 128.043 104.045 125.528 104.045ZM125.528 72.3791C123.014 72.3791 120.976 70.3538 120.976 67.8554C120.976 65.357 123.014 63.3317 125.528 63.3317C128.043 63.3317 130.081 65.357 130.081 67.8554C130.081 70.3538 128.043 72.3791 125.528 72.3791ZM125.528 40.7133C123.014 40.7133 120.976 38.6879 120.976 36.1896C120.976 33.6912 123.014 31.6658 125.528 31.6658C128.043 31.6658 130.081 33.6912 130.081 36.1896C130.081 38.6879 128.043 40.7133 125.528 40.7133ZM125.528 9.04738C123.014 9.04738 120.976 7.02206 120.976 4.52369C120.976 2.02532 123.014 0 125.528 0C128.043 0 130.081 2.02532 130.081 4.52369C130.081 7.02206 128.043 9.04738 125.528 9.04738ZM95.6098 167.377C93.0953 167.377 91.0569 165.351 91.0569 162.853C91.0569 160.355 93.0953 158.329 95.6098 158.329C98.1243 158.329 100.163 160.355 100.163 162.853C100.163 165.351 98.1243 167.377 95.6098 167.377ZM95.6098 135.711C93.0953 135.711 91.0569 133.685 91.0569 131.187C91.0569 128.689 93.0953 126.663 95.6098 126.663C98.1243 126.663 100.163 128.689 100.163 131.187C100.163 133.685 98.1243 135.711 95.6098 135.711ZM95.6098 104.045C93.0953 104.045 91.0569 102.02 91.0569 99.5212C91.0569 97.0228 93.0953 94.9975 95.6098 94.9975C98.1243 94.9975 100.163 97.0228 100.163 99.5212C100.163 102.02 98.1243 104.045 95.6098 104.045ZM95.6098 72.3791C93.0953 72.3791 91.0569 70.3538 91.0569 67.8554C91.0569 65.357 93.0953 63.3317 95.6098 63.3317C98.1243 63.3317 100.163 65.357 100.163 67.8554C100.163 70.3538 98.1243 72.3791 95.6098 72.3791ZM95.6098 40.7133C93.0953 40.7133 91.0569 38.6879 91.0569 36.1896C91.0569 33.6912 93.0953 31.6658 95.6098 31.6658C98.1243 31.6658 100.163 33.6912 100.163 36.1896C100.163 38.6879 98.1243 40.7133 95.6098 40.7133ZM95.6098 9.04738C93.0953 9.04738 91.0569 7.02206 91.0569 4.52369C91.0569 2.02532 93.0953 0 95.6098 0C98.1243 0 100.163 2.02532 100.163 4.52369C100.163 7.02206 98.1243 9.04738 95.6098 9.04738ZM64.3902 167.377C61.8757 167.377 59.8374 165.351 59.8374 162.853C59.8374 160.355 61.8757 158.329 64.3902 158.329C66.9047 158.329 68.9431 160.355 68.9431 162.853C68.9431 165.351 66.9047 167.377 64.3902 167.377ZM64.3902 135.711C61.8757 135.711 59.8374 133.685 59.8374 131.187C59.8374 128.689 61.8757 126.663 64.3902 126.663C66.9047 126.663 68.9431 128.689 68.9431 131.187C68.9431 133.685 66.9047 135.711 64.3902 135.711ZM64.3902 104.045C61.8757 104.045 59.8374 102.02 59.8374 99.5212C59.8374 97.0228 61.8757 94.9975 64.3902 94.9975C66.9047 94.9975 68.9431 97.0228 68.9431 99.5212C68.9431 102.02 66.9047 104.045 64.3902 104.045ZM64.3902 72.3791C61.8757 72.3791 59.8374 70.3538 59.8374 67.8554C59.8374 65.357 61.8757 63.3317 64.3902 63.3317C66.9047 63.3317 68.9431 65.357 68.9431 67.8554C68.9431 70.3538 66.9047 72.3791 64.3902 72.3791ZM64.3902 40.7133C61.8757 40.7133 59.8374 38.6879 59.8374 36.1896C59.8374 33.6912 61.8757 31.6658 64.3902 31.6658C66.9047 31.6658 68.9431 33.6912 68.9431 36.1896C68.9431 38.6879 66.9047 40.7133 64.3902 40.7133ZM64.3902 9.04738C61.8757 9.04738 59.8374 7.02206 59.8374 4.52369C59.8374 2.02532 61.8757 0 64.3902 0C66.9047 0 68.9431 2.02532 68.9431 4.52369C68.9431 7.02206 66.9047 9.04738 64.3902 9.04738ZM34.4715 167.377C31.9571 167.377 29.9187 165.351 29.9187 162.853C29.9187 160.355 31.9571 158.329 34.4715 158.329C36.986 158.329 39.0244 160.355 39.0244 162.853C39.0244 165.351 36.986 167.377 34.4715 167.377ZM34.4715 135.711C31.9571 135.711 29.9187 133.685 29.9187 131.187C29.9187 128.689 31.9571 126.663 34.4715 126.663C36.986 126.663 39.0244 128.689 39.0244 131.187C39.0244 133.685 36.986 135.711 34.4715 135.711ZM34.4715 104.045C31.9571 104.045 29.9187 102.02 29.9187 99.5212C29.9187 97.0228 31.9571 94.9975 34.4715 94.9975C36.986 94.9975 39.0244 97.0228 39.0244 99.5212C39.0244 102.02 36.986 104.045 34.4715 104.045ZM34.4715 72.3791C31.9571 72.3791 29.9187 70.3538 29.9187 67.8554C29.9187 65.357 31.9571 63.3317 34.4715 63.3317C36.986 63.3317 39.0244 65.357 39.0244 67.8554C39.0244 70.3538 36.986 72.3791 34.4715 72.3791ZM34.4715 40.7133C31.9571 40.7133 29.9187 38.6879 29.9187 36.1896C29.9187 33.6912 31.9571 31.6658 34.4715 31.6658C36.986 31.6658 39.0244 33.6912 39.0244 36.1896C39.0244 38.6879 36.986 40.7133 34.4715 40.7133ZM34.4715 9.04738C31.9571 9.04738 29.9187 7.02206 29.9187 4.52369C29.9187 2.02532 31.9571 0 34.4715 0C36.986 0 39.0244 2.02532 39.0244 4.52369C39.0244 7.02206 36.986 9.04738 34.4715 9.04738ZM4.55288 167.377C2.03842 167.377 0 165.351 0 162.853C0 160.355 2.03842 158.329 4.55288 158.329C7.06735 158.329 9.10564 160.355 9.10564 162.853C9.10564 165.351 7.06735 167.377 4.55288 167.377ZM4.55288 135.711C2.03842 135.711 0 133.685 0 131.187C0 128.689 2.03842 126.663 4.55288 126.663C7.06735 126.663 9.10564 128.689 9.10564 131.187C9.10564 133.685 7.06735 135.711 4.55288 135.711ZM4.55288 104.045C2.03842 104.045 0 102.02 0 99.5212C0 97.0228 2.03842 94.9975 4.55288 94.9975C7.06735 94.9975 9.10564 97.0228 9.10564 99.5212C9.10564 102.02 7.06735 104.045 4.55288 104.045ZM4.55288 72.3791C2.03842 72.3791 0 70.3538 0 67.8554C0 65.357 2.03842 63.3317 4.55288 63.3317C7.06735 63.3317 9.10564 65.357 9.10564 67.8554C9.10564 70.3538 7.06735 72.3791 4.55288 72.3791ZM4.55288 40.7133C2.03842 40.7133 0 38.6879 0 36.1896C0 33.6912 2.03842 31.6658 4.55288 31.6658C7.06735 31.6658 9.10564 33.6912 9.10564 36.1896C9.10564 38.6879 7.06735 40.7133 4.55288 40.7133ZM4.55288 9.04738C2.03842 9.04738 0 7.02206 0 4.52369C0 2.02532 2.03842 0 4.55288 0C7.06735 0 9.10564 2.02532 9.10564 4.52369C9.10564 7.02206 7.06735 9.04738 4.55288 9.04738ZM155.447 358C152.933 358 150.894 355.975 150.894 353.476C150.894 350.978 152.933 348.953 155.447 348.953C157.962 348.953 160 350.978 160 353.476C160 355.975 157.962 358 155.447 358ZM155.447 326.334C152.933 326.334 150.894 324.309 150.894 321.81C150.894 319.312 152.933 317.287 155.447 317.287C157.962 317.287 160 319.312 160 321.81C160 324.309 157.962 326.334 155.447 326.334ZM155.447 294.668C152.933 294.668 150.894 292.643 150.894 290.145C150.894 287.646 152.933 285.621 155.447 285.621C157.962 285.621 160 287.646 160 290.145C160 292.643 157.962 294.668 155.447 294.668ZM155.447 263.002C152.933 263.002 150.894 260.977 150.894 258.479C150.894 255.98 152.933 253.955 155.447 253.955C157.962 253.955 160 255.98 160 258.479C160 260.977 157.962 263.002 155.447 263.002ZM155.447 231.337C152.933 231.337 150.894 229.311 150.894 226.813C150.894 224.315 152.933 222.289 155.447 222.289C157.962 222.289 160 224.315 160 226.813C160 229.311 157.962 231.337 155.447 231.337ZM155.447 199.671C152.933 199.671 150.894 197.645 150.894 195.147C150.894 192.649 152.933 190.623 155.447 190.623C157.962 190.623 160 192.649 160 195.147C160 197.645 157.962 199.671 155.447 199.671ZM125.528 358C123.014 358 120.976 355.975 120.976 353.476C120.976 350.978 123.014 348.953 125.528 348.953C128.043 348.953 130.081 350.978 130.081 353.476C130.081 355.975 128.043 358 125.528 358ZM125.528 326.334C123.014 326.334 120.976 324.309 120.976 321.81C120.976 319.312 123.014 317.287 125.528 317.287C128.043 317.287 130.081 319.312 130.081 321.81C130.081 324.309 128.043 326.334 125.528 326.334ZM125.528 294.668C123.014 294.668 120.976 292.643 120.976 290.145C120.976 287.646 123.014 285.621 125.528 285.621C128.043 285.621 130.081 287.646 130.081 290.145C130.081 292.643 128.043 294.668 125.528 294.668ZM125.528 263.002C123.014 263.002 120.976 260.977 120.976 258.479C120.976 255.98 123.014 253.955 125.528 253.955C128.043 253.955 130.081 255.98 130.081 258.479C130.081 260.977 128.043 263.002 125.528 263.002ZM125.528 231.337C123.014 231.337 120.976 229.311 120.976 226.813C120.976 224.315 123.014 222.289 125.528 222.289C128.043 222.289 130.081 224.315 130.081 226.813C130.081 229.311 128.043 231.337 125.528 231.337ZM125.528 199.671C123.014 199.671 120.976 197.645 120.976 195.147C120.976 192.649 123.014 190.623 125.528 190.623C128.043 190.623 130.081 192.649 130.081 195.147C130.081 197.645 128.043 199.671 125.528 199.671ZM95.6098 358C93.0953 358 91.0569 355.975 91.0569 353.476C91.0569 350.978 93.0953 348.953 95.6098 348.953C98.1243 348.953 100.163 350.978 100.163 353.476C100.163 355.975 98.1243 358 95.6098 358ZM95.6098 326.334C93.0953 326.334 91.0569 324.309 91.0569 321.81C91.0569 319.312 93.0953 317.287 95.6098 317.287C98.1243 317.287 100.163 319.312 100.163 321.81C100.163 324.309 98.1243 326.334 95.6098 326.334ZM95.6098 294.668C93.0953 294.668 91.0569 292.643 91.0569 290.145C91.0569 287.646 93.0953 285.621 95.6098 285.621C98.1243 285.621 100.163 287.646 100.163 290.145C100.163 292.643 98.1243 294.668 95.6098 294.668ZM95.6098 263.002C93.0953 263.002 91.0569 260.977 91.0569 258.479C91.0569 255.98 93.0953 253.955 95.6098 253.955C98.1243 253.955 100.163 255.98 100.163 258.479C100.163 260.977 98.1243 263.002 95.6098 263.002ZM95.6098 231.337C93.0953 231.337 91.0569 229.311 91.0569 226.813C91.0569 224.315 93.0953 222.289 95.6098 222.289C98.1243 222.289 100.163 224.315 100.163 226.813C100.163 229.311 98.1243 231.337 95.6098 231.337ZM95.6098 199.671C93.0953 199.671 91.0569 197.645 91.0569 195.147C91.0569 192.649 93.0953 190.623 95.6098 190.623C98.1243 190.623 100.163 192.649 100.163 195.147C100.163 197.645 98.1243 199.671 95.6098 199.671ZM64.3902 358C61.8757 358 59.8374 355.975 59.8374 353.476C59.8374 350.978 61.8757 348.953 64.3902 348.953C66.9047 348.953 68.9431 350.978 68.9431 353.476C68.9431 355.975 66.9047 358 64.3902 358ZM64.3902 326.334C61.8757 326.334 59.8374 324.309 59.8374 321.81C59.8374 319.312 61.8757 317.287 64.3902 317.287C66.9047 317.287 68.9431 319.312 68.9431 321.81C68.9431 324.309 66.9047 326.334 64.3902 326.334ZM64.3902 294.668C61.8757 294.668 59.8374 292.643 59.8374 290.145C59.8374 287.646 61.8757 285.621 64.3902 285.621C66.9047 285.621 68.9431 287.646 68.9431 290.145C68.9431 292.643 66.9047 294.668 64.3902 294.668ZM64.3902 263.002C61.8757 263.002 59.8374 260.977 59.8374 258.479C59.8374 255.98 61.8757 253.955 64.3902 253.955C66.9047 253.955 68.9431 255.98 68.9431 258.479C68.9431 260.977 66.9047 263.002 64.3902 263.002ZM64.3902 231.337C61.8757 231.337 59.8374 229.311 59.8374 226.813C59.8374 224.315 61.8757 222.289 64.3902 222.289C66.9047 222.289 68.9431 224.315 68.9431 226.813C68.9431 229.311 66.9047 231.337 64.3902 231.337ZM64.3902 199.671C61.8757 199.671 59.8374 197.645 59.8374 195.147C59.8374 192.649 61.8757 190.623 64.3902 190.623C66.9047 190.623 68.9431 192.649 68.9431 195.147C68.9431 197.645 66.9047 199.671 64.3902 199.671ZM34.4715 358C31.9571 358 29.9187 355.975 29.9187 353.476C29.9187 350.978 31.9571 348.953 34.4715 348.953C36.986 348.953 39.0244 350.978 39.0244 353.476C39.0244 355.975 36.986 358 34.4715 358ZM34.4715 326.334C31.9571 326.334 29.9187 324.309 29.9187 321.81C29.9187 319.312 31.9571 317.287 34.4715 317.287C36.986 317.287 39.0244 319.312 39.0244 321.81C39.0244 324.309 36.986 326.334 34.4715 326.334ZM34.4715 294.668C31.9571 294.668 29.9187 292.643 29.9187 290.145C29.9187 287.646 31.9571 285.621 34.4715 285.621C36.986 285.621 39.0244 287.646 39.0244 290.145C39.0244 292.643 36.986 294.668 34.4715 294.668ZM34.4715 263.002C31.9571 263.002 29.9187 260.977 29.9187 258.479C29.9187 255.98 31.9571 253.955 34.4715 253.955C36.986 253.955 39.0244 255.98 39.0244 258.479C39.0244 260.977 36.986 263.002 34.4715 263.002ZM34.4715 231.337C31.9571 231.337 29.9187 229.311 29.9187 226.813C29.9187 224.315 31.9571 222.289 34.4715 222.289C36.986 222.289 39.0244 224.315 39.0244 226.813C39.0244 229.311 36.986 231.337 34.4715 231.337ZM34.4715 199.671C31.9571 199.671 29.9187 197.645 29.9187 195.147C29.9187 192.649 31.9571 190.623 34.4715 190.623C36.986 190.623 39.0244 192.649 39.0244 195.147C39.0244 197.645 36.986 199.671 34.4715 199.671ZM4.55288 358C2.03842 358 0 355.975 0 353.476C0 350.978 2.03842 348.953 4.55288 348.953C7.06735 348.953 9.10564 350.978 9.10564 353.476C9.10564 355.975 7.06735 358 4.55288 358ZM4.55288 326.334C2.03842 326.334 0 324.309 0 321.81C0 319.312 2.03842 317.287 4.55288 317.287C7.06735 317.287 9.10564 319.312 9.10564 321.81C9.10564 324.309 7.06735 326.334 4.55288 326.334ZM4.55288 294.668C2.03842 294.668 0 292.643 0 290.145C0 287.646 2.03842 285.621 4.55288 285.621C7.06735 285.621 9.10564 287.646 9.10564 290.145C9.10564 292.643 7.06735 294.668 4.55288 294.668ZM4.55288 263.002C2.03842 263.002 0 260.977 0 258.479C0 255.98 2.03842 253.955 4.55288 253.955C7.06735 253.955 9.10564 255.98 9.10564 258.479C9.10564 260.977 7.06735 263.002 4.55288 263.002ZM4.55288 231.337C2.03842 231.337 0 229.311 0 226.813C0 224.315 2.03842 222.289 4.55288 222.289C7.06735 222.289 9.10564 224.315 9.10564 226.813C9.10564 229.311 7.06735 231.337 4.55288 231.337ZM4.55288 199.671C2.03842 199.671 0 197.645 0 195.147C0 192.649 2.03842 190.623 4.55288 190.623C7.06735 190.623 9.10564 192.649 9.10564 195.147C9.10564 197.645 7.06735 199.671 4.55288 199.671Z" fill="url(#paint0_linear)"/>
<defs>
<linearGradient id="paint0_linear" x1="2.14737e-06" y1="-8" x2="147" y2="368.5" gradientUnits="userSpaceOnUse">
<stop stop-color="#228BE6"/>
<stop offset="1" stop-color="#3BC9DB"/>
</linearGradient>
</defs>
</svg>
